<?xml version="1.0" encoding="UTF-8" standalone="no"?>
<!DOCTYPE svg PUBLIC "-//W3C//DTD SVG 1.1//EN" "http://www.w3.org/Graphics/SVG/1.1/DTD/svg11.dtd">
<svg width="100%" height="100%" viewBox="0 0 48 48" version="1.1" xmlns="http://www.w3.org/2000/svg" xmlns:xlink="http://www.w3.org/1999/xlink" xml:space="preserve" style="fill-rule:evenodd;clip-rule:evenodd;stroke-linejoin:round;stroke-miterlimit:1.41421;">
    <g>
        <g transform="matrix(1,0,0,1,-299,-46)">
            <circle cx="323" cy="70" r="24" style="fill:rgb(19,109,251);"/>
        </g>
        <g transform="matrix(1,0,0,1,-118.804,-45.5984)">
            <path d="M143.069,76.943C142.469,77.423 141.654,77.828 140.624,78.158C139.594,78.488 138.499,78.653 137.339,78.653C134.919,78.653 133.149,77.948 132.029,76.538C130.909,75.128 130.349,73.193 130.349,70.733C130.349,68.093 130.979,66.113 132.239,64.793C133.499,63.473 135.269,62.813 137.549,62.813C138.309,62.813 139.049,62.913 139.769,63.113C140.489,63.313 141.129,63.643 141.689,64.103C142.249,64.563 142.699,65.183 143.039,65.963C143.379,66.743 143.549,67.713 143.549,68.873C143.549,69.293 143.524,69.743 143.474,70.223C143.424,70.703 143.349,71.203 143.249,71.723L134.249,71.723C134.309,72.983 134.634,73.933 135.224,74.573C135.814,75.213 136.769,75.533 138.089,75.533C138.909,75.533 139.644,75.408 140.294,75.158C140.944,74.908 141.439,74.653 141.779,74.393L143.069,76.943ZM137.489,65.933C136.469,65.933 135.714,66.238 135.224,66.848C134.734,67.458 134.439,68.273 134.339,69.293L139.919,69.293C139.999,68.213 139.834,67.383 139.424,66.803C139.014,66.223 138.369,65.933 137.489,65.933Z" style="fill:rgb(0,79,213);fill-rule:nonzero;"/>
            <path d="M149.849,71.663L150.389,74.003L150.569,74.003L150.959,71.633L153.239,63.233L157.259,63.233L152.699,76.763C152.319,77.883 151.954,78.908 151.604,79.838C151.254,80.768 150.869,81.573 150.449,82.253C150.029,82.933 149.564,83.458 149.054,83.828C148.544,84.198 147.939,84.383 147.239,84.383C146.199,84.383 145.369,84.213 144.749,83.873L145.469,80.753C145.769,80.873 146.069,80.933 146.369,80.933C146.829,80.933 147.274,80.738 147.704,80.348C148.134,79.958 148.459,79.253 148.679,78.233L142.409,63.233L147.089,63.233L149.849,71.663Z" style="fill:rgb(0,79,213);fill-rule:nonzero;"/>
        </g>
        <g transform="matrix(1,0,0,1,-119.804,-46.5984)">
            <path d="M143.069,76.943C142.469,77.423 141.654,77.828 140.624,78.158C139.594,78.488 138.499,78.653 137.339,78.653C134.919,78.653 133.149,77.948 132.029,76.538C130.909,75.128 130.349,73.193 130.349,70.733C130.349,68.093 130.979,66.113 132.239,64.793C133.499,63.473 135.269,62.813 137.549,62.813C138.309,62.813 139.049,62.913 139.769,63.113C140.489,63.313 141.129,63.643 141.689,64.103C142.249,64.563 142.699,65.183 143.039,65.963C143.379,66.743 143.549,67.713 143.549,68.873C143.549,69.293 143.524,69.743 143.474,70.223C143.424,70.703 143.349,71.203 143.249,71.723L134.249,71.723C134.309,72.983 134.634,73.933 135.224,74.573C135.814,75.213 136.769,75.533 138.089,75.533C138.909,75.533 139.644,75.408 140.294,75.158C140.944,74.908 141.439,74.653 141.779,74.393L143.069,76.943ZM137.489,65.933C136.469,65.933 135.714,66.238 135.224,66.848C134.734,67.458 134.439,68.273 134.339,69.293L139.919,69.293C139.999,68.213 139.834,67.383 139.424,66.803C139.014,66.223 138.369,65.933 137.489,65.933Z" style="fill:white;fill-rule:nonzero;"/>
            <path d="M149.849,71.663L150.389,74.003L150.569,74.003L150.959,71.633L153.239,63.233L157.259,63.233L152.699,76.763C152.319,77.883 151.954,78.908 151.604,79.838C151.254,80.768 150.869,81.573 150.449,82.253C150.029,82.933 149.564,83.458 149.054,83.828C148.544,84.198 147.939,84.383 147.239,84.383C146.199,84.383 145.369,84.213 144.749,83.873L145.469,80.753C145.769,80.873 146.069,80.933 146.369,80.933C146.829,80.933 147.274,80.738 147.704,80.348C148.134,79.958 148.459,79.253 148.679,78.233L142.409,63.233L147.089,63.233L149.849,71.663Z" style="fill:white;fill-rule:nonzero;"/>
        </g>
    </g>
</svg>
